<svg xmlns="http://www.w3.org/2000/svg" xmlns:xlink="http://www.w3.org/1999/xlink" width="180" zoomAndPan="magnify" viewBox="0 0 135 30.000001" height="40" preserveAspectRatio="xMidYMid meet" version="1.0"><defs><g/><clipPath id="539b380c2b"><path d="M 2.175781 0 L 132.820312 0 L 132.820312 29.03125 L 2.175781 29.03125 Z M 2.175781 0 " clip-rule="nonzero"/></clipPath><clipPath id="085593fb37"><path d="M 10.605469 7.601562 L 25 7.601562 L 25 21.390625 L 10.605469 21.390625 Z M 10.605469 7.601562 " clip-rule="nonzero"/></clipPath></defs><g clip-path="url(#539b380c2b)"><path fill="#ffffff" d="M 2.175781 0 L 132.824219 0 L 132.824219 36.289062 L 2.175781 36.289062 Z M 2.175781 0 " fill-opacity="1" fill-rule="nonzero"/><path fill="#ffffff" d="M 2.175781 0 L 132.824219 0 L 132.824219 29.03125 L 2.175781 29.03125 Z M 2.175781 0 " fill-opacity="1" fill-rule="nonzero"/><path fill="#004aad" d="M 2.175781 0 L 132.824219 0 L 132.824219 29.03125 L 2.175781 29.03125 Z M 2.175781 0 " fill-opacity="1" fill-rule="nonzero"/></g><g clip-path="url(#085593fb37)"><path fill="#ffffff" d="M 24.597656 11.390625 C 24.007812 9.097656 22.066406 7.625 19.71875 7.621094 C 17 7.621094 14.28125 7.621094 11.566406 7.621094 L 12.628906 9.511719 C 14.996094 9.507812 17.355469 9.507812 19.722656 9.511719 C 20.5 9.511719 21.203125 9.742188 21.792969 10.265625 C 22.71875 11.078125 22.996094 12.132812 22.875 13.320312 C 22.734375 14.691406 21.839844 15.847656 20.621094 16.140625 C 20.101562 16.265625 19.546875 16.21875 19.011719 16.269531 C 18.707031 16.304688 18.554688 16.175781 18.410156 15.921875 C 17.421875 14.167969 16.417969 12.425781 15.421875 10.679688 C 15.238281 10.363281 15.042969 10.359375 14.859375 10.671875 C 14.597656 11.132812 14.332031 11.597656 14.066406 12.058594 C 12.945312 14.015625 11.828125 15.96875 10.710938 17.921875 C 10.675781 17.984375 10.652344 18.050781 10.605469 18.15625 L 10.910156 18.15625 C 13.011719 18.15625 15.113281 18.160156 17.210938 18.148438 C 17.367188 18.148438 17.472656 18.179688 17.558594 18.253906 C 17.613281 18.300781 17.65625 18.363281 17.703125 18.445312 C 18.253906 19.421875 18.8125 20.390625 19.367188 21.367188 L 21.539062 21.367188 C 21.28125 20.914062 21.03125 20.480469 20.785156 20.050781 C 20.433594 19.4375 20.085938 18.824219 19.738281 18.214844 C 19.78125 18.179688 19.792969 18.164062 19.808594 18.160156 C 19.871094 18.15625 19.933594 18.152344 20 18.152344 C 20.960938 18.109375 21.832031 17.808594 22.621094 17.257812 C 24.574219 15.910156 25.121094 13.445312 24.597656 11.390625 Z M 13.839844 16.246094 C 14.273438 15.484375 14.691406 14.75 15.136719 13.976562 C 15.386719 14.414062 15.628906 14.835938 15.871094 15.261719 C 16.058594 15.585938 16.242188 15.910156 16.433594 16.246094 Z M 13.839844 16.246094 " fill-opacity="1" fill-rule="nonzero"/></g><g fill="#ffffff" fill-opacity="1"><g transform="translate(28.681262, 17.326656)"><g><path d="M 3.734375 0 C 4.398438 0 4.976562 -0.140625 5.46875 -0.421875 C 5.957031 -0.710938 6.335938 -1.125 6.609375 -1.65625 C 6.878906 -2.1875 7.015625 -2.8125 7.015625 -3.53125 C 7.015625 -4.207031 6.890625 -4.800781 6.640625 -5.3125 C 6.390625 -5.832031 6.019531 -6.238281 5.53125 -6.53125 C 5.039062 -6.832031 4.445312 -6.984375 3.75 -6.984375 L 0.84375 -6.984375 L 0.84375 0 Z M 3.734375 -5.671875 C 4.265625 -5.671875 4.664062 -5.476562 4.9375 -5.09375 C 5.207031 -4.71875 5.34375 -4.195312 5.34375 -3.53125 C 5.34375 -2.78125 5.191406 -2.21875 4.890625 -1.84375 C 4.585938 -1.476562 4.179688 -1.296875 3.671875 -1.296875 L 2.4375 -1.296875 L 2.4375 -5.671875 Z M 3.734375 -5.671875 "/></g></g></g><g fill="#ffffff" fill-opacity="1"><g transform="translate(36.02041, 17.326656)"><g><path d="M 2.4375 -1.25 L 2.4375 -2.890625 L 4.859375 -2.890625 L 4.65625 -4.140625 L 2.4375 -4.140625 L 2.4375 -5.71875 L 5.4375 -5.71875 L 5.25 -6.984375 L 0.84375 -6.984375 L 0.84375 0 L 5.84375 0 L 5.65625 -1.25 Z M 2.4375 -1.25 "/></g></g></g><g fill="#ffffff" fill-opacity="1"><g transform="translate(42.076489, 17.326656)"><g><path d="M 2.765625 0 L 4.265625 0 L 6.921875 -6.984375 L 5.34375 -6.984375 L 3.546875 -2.03125 L 1.6875 -7.078125 L 0.109375 -6.90625 Z M 2.765625 0 "/></g></g></g><g fill="#ffffff" fill-opacity="1"><g transform="translate(49.107699, 17.326656)"><g><path d="M 2.4375 -1.25 L 2.4375 -2.890625 L 4.859375 -2.890625 L 4.65625 -4.140625 L 2.4375 -4.140625 L 2.4375 -5.71875 L 5.4375 -5.71875 L 5.25 -6.984375 L 0.84375 -6.984375 L 0.84375 0 L 5.84375 0 L 5.65625 -1.25 Z M 2.4375 -1.25 "/></g></g></g><g fill="#ffffff" fill-opacity="1"><g transform="translate(55.163778, 17.326656)"><g><path d="M 2.4375 -6.984375 L 0.84375 -6.984375 L 0.84375 0 L 5.65625 0 L 5.46875 -1.25 L 2.4375 -1.25 Z M 2.4375 -6.984375 "/></g></g></g><g fill="#ffffff" fill-opacity="1"><g transform="translate(60.922185, 17.326656)"><g><path d="M 3.84375 -7.140625 C 3.164062 -7.128906 2.554688 -6.96875 2.015625 -6.65625 C 1.484375 -6.34375 1.066406 -5.90625 0.765625 -5.34375 C 0.472656 -4.789062 0.328125 -4.160156 0.328125 -3.453125 C 0.328125 -2.785156 0.46875 -2.175781 0.75 -1.625 C 1.039062 -1.082031 1.445312 -0.648438 1.96875 -0.328125 C 2.5 -0.015625 3.125 0.140625 3.84375 0.140625 C 4.53125 0.140625 5.140625 -0.015625 5.671875 -0.328125 C 6.210938 -0.640625 6.628906 -1.070312 6.921875 -1.625 C 7.222656 -2.1875 7.375 -2.820312 7.375 -3.53125 C 7.375 -4.195312 7.234375 -4.804688 6.953125 -5.359375 C 6.671875 -5.910156 6.265625 -6.34375 5.734375 -6.65625 C 5.203125 -6.976562 4.570312 -7.140625 3.84375 -7.140625 Z M 1.984375 -3.46875 C 1.984375 -3.925781 2.066406 -4.332031 2.234375 -4.6875 C 2.410156 -5.039062 2.640625 -5.3125 2.921875 -5.5 C 3.210938 -5.695312 3.53125 -5.796875 3.875 -5.796875 C 4.238281 -5.796875 4.554688 -5.695312 4.828125 -5.5 C 5.109375 -5.300781 5.320312 -5.03125 5.46875 -4.6875 C 5.625 -4.34375 5.703125 -3.957031 5.703125 -3.53125 C 5.703125 -3.019531 5.617188 -2.585938 5.453125 -2.234375 C 5.296875 -1.890625 5.070312 -1.628906 4.78125 -1.453125 C 4.5 -1.285156 4.1875 -1.203125 3.84375 -1.203125 C 3.269531 -1.203125 2.816406 -1.410156 2.484375 -1.828125 C 2.148438 -2.253906 1.984375 -2.800781 1.984375 -3.46875 Z M 1.984375 -3.46875 "/></g></g></g><g fill="#ffffff" fill-opacity="1"><g transform="translate(68.620592, 17.326656)"><g><path d="M 3.328125 -2.234375 C 3.847656 -2.234375 4.328125 -2.316406 4.765625 -2.484375 C 5.210938 -2.660156 5.566406 -2.925781 5.828125 -3.28125 C 6.097656 -3.632812 6.234375 -4.070312 6.234375 -4.59375 C 6.234375 -5.125 6.109375 -5.566406 5.859375 -5.921875 C 5.609375 -6.273438 5.269531 -6.539062 4.84375 -6.71875 C 4.414062 -6.894531 3.941406 -6.984375 3.421875 -6.984375 L 0.84375 -6.984375 L 0.84375 0 L 2.4375 0 L 2.4375 -2.234375 Z M 3.359375 -5.6875 C 3.742188 -5.6875 4.039062 -5.585938 4.25 -5.390625 C 4.457031 -5.203125 4.5625 -4.925781 4.5625 -4.5625 C 4.550781 -4.238281 4.4375 -3.984375 4.21875 -3.796875 C 4.007812 -3.609375 3.734375 -3.515625 3.390625 -3.515625 L 2.4375 -3.515625 L 2.4375 -5.6875 Z M 3.359375 -5.6875 "/></g></g></g><g fill="#ffffff" fill-opacity="1"><g transform="translate(75.087254, 17.326656)"><g><path d="M 2.4375 -1.25 L 2.4375 -2.890625 L 4.859375 -2.890625 L 4.65625 -4.140625 L 2.4375 -4.140625 L 2.4375 -5.71875 L 5.4375 -5.71875 L 5.25 -6.984375 L 0.84375 -6.984375 L 0.84375 0 L 5.84375 0 L 5.65625 -1.25 Z M 2.4375 -1.25 "/></g></g></g><g fill="#ffffff" fill-opacity="1"><g transform="translate(81.143332, 17.326656)"><g><path d="M 2.4375 0 L 2.4375 -2.421875 L 3.703125 -2.421875 L 5 0 L 6.796875 0 L 5.15625 -2.875 C 5.488281 -3.0625 5.75 -3.3125 5.9375 -3.625 C 6.132812 -3.9375 6.234375 -4.300781 6.234375 -4.71875 C 6.234375 -5.46875 5.96875 -6.03125 5.4375 -6.40625 C 4.914062 -6.789062 4.242188 -6.984375 3.421875 -6.984375 L 0.84375 -6.984375 L 0.84375 0 Z M 3.359375 -5.6875 C 3.742188 -5.6875 4.039062 -5.601562 4.25 -5.4375 C 4.457031 -5.269531 4.5625 -5.019531 4.5625 -4.6875 C 4.5625 -4.375 4.453125 -4.128906 4.234375 -3.953125 C 4.015625 -3.785156 3.734375 -3.703125 3.390625 -3.703125 L 2.4375 -3.703125 L 2.4375 -5.6875 Z M 3.359375 -5.6875 "/></g></g></g><g fill="#ffffff" fill-opacity="1"><g transform="translate(88.041106, 17.326656)"><g/></g></g><g fill="#ffffff" fill-opacity="1"><g transform="translate(90.319833, 17.326656)"><g><path d="M 1.703125 0 L 2.25 -1.515625 L 4.78125 -1.515625 L 5.34375 0.109375 L 6.921875 -0.078125 L 4.28125 -6.984375 L 2.765625 -6.984375 L 0.109375 0 Z M 3.484375 -4.953125 L 4.3125 -2.78125 L 2.703125 -2.78125 Z M 3.484375 -4.953125 "/></g></g></g><g fill="#ffffff" fill-opacity="1"><g transform="translate(97.351039, 17.326656)"><g><path d="M 5.046875 -6.984375 L 5.046875 -4.109375 L 2.4375 -4.109375 L 2.4375 -7.046875 L 0.84375 -6.984375 L 0.84375 0 L 2.4375 0 L 2.4375 -2.84375 L 5.046875 -2.84375 L 5.046875 0 L 6.640625 0 L 6.640625 -6.984375 Z M 5.046875 -6.984375 "/></g></g></g><g fill="#ffffff" fill-opacity="1"><g transform="translate(104.844153, 17.326656)"><g><path d="M 5.59375 0 L 7.203125 0 L 7.203125 -6.984375 L 6.1875 -6.984375 L 4.140625 -4.046875 L 1.90625 -6.984375 L 0.84375 -6.984375 L 0.84375 0 L 2.4375 0 L 2.4375 -3.8125 L 3.84375 -2.046875 L 4.46875 -2.140625 L 5.59375 -3.703125 Z M 5.59375 0 "/></g></g></g><g fill="#ffffff" fill-opacity="1"><g transform="translate(112.901815, 17.326656)"><g><path d="M 2.4375 -1.25 L 2.4375 -2.890625 L 4.859375 -2.890625 L 4.65625 -4.140625 L 2.4375 -4.140625 L 2.4375 -5.71875 L 5.4375 -5.71875 L 5.25 -6.984375 L 0.84375 -6.984375 L 0.84375 0 L 5.84375 0 L 5.65625 -1.25 Z M 2.4375 -1.25 "/></g></g></g><g fill="#ffffff" fill-opacity="1"><g transform="translate(118.957894, 17.326656)"><g><path d="M 3.734375 0 C 4.398438 0 4.976562 -0.140625 5.46875 -0.421875 C 5.957031 -0.710938 6.335938 -1.125 6.609375 -1.65625 C 6.878906 -2.1875 7.015625 -2.8125 7.015625 -3.53125 C 7.015625 -4.207031 6.890625 -4.800781 6.640625 -5.3125 C 6.390625 -5.832031 6.019531 -6.238281 5.53125 -6.53125 C 5.039062 -6.832031 4.445312 -6.984375 3.75 -6.984375 L 0.84375 -6.984375 L 0.84375 0 Z M 3.734375 -5.671875 C 4.265625 -5.671875 4.664062 -5.476562 4.9375 -5.09375 C 5.207031 -4.71875 5.34375 -4.195312 5.34375 -3.53125 C 5.34375 -2.78125 5.191406 -2.21875 4.890625 -1.84375 C 4.585938 -1.476562 4.179688 -1.296875 3.671875 -1.296875 L 2.4375 -1.296875 L 2.4375 -5.671875 Z M 3.734375 -5.671875 "/></g></g></g></svg>