<svg xmlns="http://www.w3.org/2000/svg" xmlns:xlink="http://www.w3.org/1999/xlink" width="140" zoomAndPan="magnify" viewBox="0 0 104.88 30.000001" height="40" preserveAspectRatio="xMidYMid meet" version="1.0"><defs><g/><clipPath id="35b7730a20"><path d="M 1.632812 0 L 103.128906 0 L 103.128906 29.03125 L 1.632812 29.03125 Z M 1.632812 0 " clip-rule="nonzero"/></clipPath><clipPath id="1cfbb0cb9c"><path d="M 58.054688 8.972656 L 95.71875 8.972656 L 95.71875 20.121094 L 58.054688 20.121094 Z M 58.054688 8.972656 " clip-rule="nonzero"/></clipPath><clipPath id="9140368c3b"><path d="M 60.957031 8.972656 L 92.792969 8.972656 C 93.566406 8.972656 94.304688 9.277344 94.847656 9.820312 C 95.390625 10.367188 95.699219 11.105469 95.699219 11.875 L 95.699219 17.15625 C 95.699219 17.925781 95.390625 18.664062 94.847656 19.210938 C 94.304688 19.753906 93.566406 20.058594 92.792969 20.058594 L 60.957031 20.058594 C 60.1875 20.058594 59.449219 19.753906 58.902344 19.210938 C 58.359375 18.664062 58.054688 17.925781 58.054688 17.15625 L 58.054688 11.875 C 58.054688 11.105469 58.359375 10.367188 58.902344 9.820312 C 59.449219 9.277344 60.1875 8.972656 60.957031 8.972656 " clip-rule="nonzero"/></clipPath><clipPath id="ffc51360cc"><path d="M 58.066406 8.972656 L 95.792969 8.972656 L 95.792969 19.859375 L 58.066406 19.859375 Z M 58.066406 8.972656 " clip-rule="nonzero"/></clipPath><clipPath id="119627ca13"><path d="M 60.972656 8.972656 L 92.875 8.972656 C 93.644531 8.972656 94.386719 9.273438 94.929688 9.808594 C 95.476562 10.339844 95.78125 11.066406 95.78125 11.820312 L 95.78125 17.007812 C 95.78125 17.765625 95.476562 18.488281 94.929688 19.023438 C 94.386719 19.558594 93.644531 19.859375 92.875 19.859375 L 60.972656 19.859375 C 60.203125 19.859375 59.460938 19.558594 58.917969 19.023438 C 58.371094 18.488281 58.066406 17.765625 58.066406 17.007812 L 58.066406 11.820312 C 58.066406 11.066406 58.371094 10.339844 58.917969 9.808594 C 59.460938 9.273438 60.203125 8.972656 60.972656 8.972656 " clip-rule="nonzero"/></clipPath></defs><g clip-path="url(#35b7730a20)"><path fill="#ffffff" d="M 1.632812 0 L 103.246094 0 L 103.246094 36.289062 L 1.632812 36.289062 Z M 1.632812 0 " fill-opacity="1" fill-rule="nonzero"/><path fill="#ffffff" d="M 1.632812 0 L 103.246094 0 L 103.246094 29.03125 L 1.632812 29.03125 Z M 1.632812 0 " fill-opacity="1" fill-rule="nonzero"/><path fill="#fdf5e6" d="M 1.632812 0 L 103.246094 0 L 103.246094 29.03125 L 1.632812 29.03125 Z M 1.632812 0 " fill-opacity="1" fill-rule="nonzero"/></g><g clip-path="url(#1cfbb0cb9c)"><g clip-path="url(#9140368c3b)"><path fill="#000000" d="M 58.054688 8.972656 L 95.71875 8.972656 L 95.71875 20.027344 L 58.054688 20.027344 Z M 58.054688 8.972656 " fill-opacity="1" fill-rule="nonzero"/></g></g><g clip-path="url(#ffc51360cc)"><g clip-path="url(#119627ca13)"><path stroke-linecap="butt" transform="matrix(0.727775, 0, 0, 0.713177, 58.065195, 8.971809)" fill="none" stroke-linejoin="miter" d="M 3.995002 0.00118834 L 47.830476 0.00118834 C 48.887852 0.00118834 49.907656 0.422937 50.653724 1.17332 C 51.405158 1.918226 51.823815 2.936994 51.823815 3.994103 L 51.823815 11.267891 C 51.823815 12.330477 51.405158 13.343769 50.653724 14.094152 C 49.907656 14.844535 48.887852 15.266283 47.830476 15.266283 L 3.995002 15.266283 C 2.937626 15.266283 1.917822 14.844535 1.171755 14.094152 C 0.42032 13.343769 0.00166397 12.330477 0.00166397 11.267891 L 0.00166397 3.994103 C 0.00166397 2.936994 0.42032 1.918226 1.171755 1.17332 C 1.917822 0.422937 2.937626 0.00118834 3.995002 0.00118834 " stroke="#000000" stroke-width="8" stroke-opacity="1" stroke-miterlimit="4"/></g></g><g fill="#000000" fill-opacity="1"><g transform="translate(9.094966, 17.364074)"><g><path d="M 0.71875 0 L 3.085938 0 C 4.972656 0 6.238281 -1.203125 6.238281 -2.992188 C 6.238281 -4.765625 4.972656 -5.980469 3.085938 -5.980469 L 0.71875 -5.980469 Z M 2.074219 -1.246094 L 2.074219 -4.734375 L 3.042969 -4.734375 C 4.117188 -4.734375 4.84375 -4.042969 4.84375 -2.992188 C 4.84375 -1.9375 4.117188 -1.246094 3.058594 -1.246094 Z M 2.074219 -1.246094 "/></g></g></g><g fill="#000000" fill-opacity="1"><g transform="translate(15.186766, 17.364074)"><g><path d="M 0.71875 0 L 4.742188 0 L 4.742188 -1.152344 L 2.066406 -1.152344 L 2.066406 -2.460938 L 4.417969 -2.460938 L 4.417969 -3.597656 L 2.066406 -3.597656 L 2.066406 -4.835938 L 4.648438 -4.835938 L 4.648438 -5.980469 L 0.71875 -5.980469 Z M 0.71875 0 "/></g></g></g><g fill="#000000" fill-opacity="1"><g transform="translate(19.860276, 17.364074)"><g><path d="M 2.375 0 L 3.707031 0 L 6.007812 -5.980469 L 4.554688 -5.980469 L 3.050781 -1.957031 L 2.332031 -3.851562 L 1.539062 -5.980469 L 0.078125 -5.980469 Z M 2.375 0 "/></g></g></g><g fill="#000000" fill-opacity="1"><g transform="translate(25.439445, 17.364074)"><g><path d="M 0.71875 0 L 4.742188 0 L 4.742188 -1.152344 L 2.066406 -1.152344 L 2.066406 -2.460938 L 4.417969 -2.460938 L 4.417969 -3.597656 L 2.066406 -3.597656 L 2.066406 -4.835938 L 4.648438 -4.835938 L 4.648438 -5.980469 L 0.71875 -5.980469 Z M 0.71875 0 "/></g></g></g><g fill="#000000" fill-opacity="1"><g transform="translate(30.112955, 17.364074)"><g><path d="M 0.71875 0 L 4.691406 0 L 4.691406 -1.273438 L 2.074219 -1.273438 L 2.074219 -5.980469 L 0.71875 -5.980469 Z M 0.71875 0 "/></g></g></g><g fill="#000000" fill-opacity="1"><g transform="translate(34.53015, 17.364074)"><g><path d="M 3.554688 0.121094 C 5.425781 0.121094 6.75 -1.160156 6.75 -2.992188 C 6.75 -4.820312 5.425781 -6.101562 3.554688 -6.101562 C 1.683594 -6.101562 0.367188 -4.820312 0.367188 -2.992188 C 0.367188 -1.160156 1.683594 0.121094 3.554688 0.121094 Z M 1.75 -2.992188 C 1.75 -4.066406 2.496094 -4.808594 3.554688 -4.808594 C 4.621094 -4.808594 5.355469 -4.066406 5.355469 -2.992188 C 5.355469 -1.914062 4.621094 -1.171875 3.554688 -1.171875 C 2.496094 -1.171875 1.75 -1.914062 1.75 -2.992188 Z M 1.75 -2.992188 "/></g></g></g><g fill="#000000" fill-opacity="1"><g transform="translate(41.14312, 17.364074)"><g><path d="M 0.71875 0 L 2.074219 0 L 2.074219 -1.667969 L 3.058594 -1.667969 C 4.503906 -1.667969 5.433594 -2.511719 5.433594 -3.820312 C 5.433594 -5.136719 4.503906 -5.980469 3.058594 -5.980469 L 0.71875 -5.980469 Z M 2.066406 -2.835938 L 2.066406 -4.792969 L 2.949219 -4.792969 C 3.65625 -4.792969 4.050781 -4.433594 4.050781 -3.8125 C 4.050781 -3.1875 3.65625 -2.835938 2.949219 -2.835938 Z M 2.066406 -2.835938 "/></g></g></g><g fill="#000000" fill-opacity="1"><g transform="translate(46.320721, 17.364074)"><g><path d="M 0.71875 0 L 4.742188 0 L 4.742188 -1.152344 L 2.066406 -1.152344 L 2.066406 -2.460938 L 4.417969 -2.460938 L 4.417969 -3.597656 L 2.066406 -3.597656 L 2.066406 -4.835938 L 4.648438 -4.835938 L 4.648438 -5.980469 L 0.71875 -5.980469 Z M 0.71875 0 "/></g></g></g><g fill="#000000" fill-opacity="1"><g transform="translate(50.994231, 17.364074)"><g><path d="M 0.71875 0 L 2.074219 0 L 2.074219 -1.863281 L 2.972656 -1.863281 L 4.042969 0 L 5.613281 0 L 4.375 -2.074219 C 5.09375 -2.390625 5.511719 -3.042969 5.511719 -3.921875 C 5.511719 -5.195312 4.640625 -5.980469 3.273438 -5.980469 L 0.71875 -5.980469 Z M 2.058594 -3.007812 L 2.058594 -4.820312 L 3.09375 -4.820312 C 3.757812 -4.820312 4.136719 -4.492188 4.136719 -3.914062 C 4.136719 -3.332031 3.757812 -3.007812 3.09375 -3.007812 Z M 2.058594 -3.007812 "/></g></g></g><g fill="#ffffff" fill-opacity="1"><g transform="translate(60.346488, 17.339132)"><g><path d="M 0.078125 0 L 1.523438 0 L 1.925781 -1.03125 L 4.292969 -1.03125 L 4.691406 0 L 6.140625 0 L 3.773438 -5.960938 L 2.445312 -5.960938 Z M 2.273438 -2.09375 L 3.109375 -4.273438 L 3.953125 -2.09375 Z M 2.273438 -2.09375 "/></g></g></g><g fill="#ffffff" fill-opacity="1"><g transform="translate(66.733615, 17.339132)"><g><path d="M 4.402344 0 L 5.757812 0 L 5.757812 -5.960938 L 4.402344 -5.960938 L 4.402344 -3.671875 L 2.070312 -3.671875 L 2.070312 -5.960938 L 0.714844 -5.960938 L 0.714844 0 L 2.070312 0 L 2.070312 -2.402344 L 4.402344 -2.402344 Z M 4.402344 0 "/></g></g></g><g fill="#ffffff" fill-opacity="1"><g transform="translate(73.376236, 17.339132)"><g><path d="M 0.714844 0 L 2.0625 0 L 2.0625 -3.59375 L 3.507812 -1.472656 L 4.445312 -1.472656 L 5.894531 -3.585938 L 5.894531 0 L 7.238281 0 L 7.238281 -5.960938 L 6.097656 -5.960938 L 3.984375 -2.871094 L 1.863281 -5.960938 L 0.714844 -5.960938 Z M 0.714844 0 "/></g></g></g><g fill="#ffffff" fill-opacity="1"><g transform="translate(81.500671, 17.339132)"><g><path d="M 0.714844 0 L 4.726562 0 L 4.726562 -1.148438 L 2.0625 -1.148438 L 2.0625 -2.453125 L 4.402344 -2.453125 L 4.402344 -3.585938 L 2.0625 -3.585938 L 2.0625 -4.820312 L 4.632812 -4.820312 L 4.632812 -5.960938 L 0.714844 -5.960938 Z M 0.714844 0 "/></g></g></g><g fill="#ffffff" fill-opacity="1"><g transform="translate(86.831795, 17.339132)"><g><path d="M 0.714844 0 L 3.074219 0 C 4.957031 0 6.214844 -1.199219 6.214844 -2.980469 C 6.214844 -4.753906 4.957031 -5.960938 3.074219 -5.960938 L 0.714844 -5.960938 Z M 2.070312 -1.242188 L 2.070312 -4.71875 L 3.03125 -4.71875 C 4.105469 -4.71875 4.828125 -4.027344 4.828125 -2.980469 C 4.828125 -1.933594 4.105469 -1.242188 3.046875 -1.242188 Z M 2.070312 -1.242188 "/></g></g></g></svg>